<svg width="32" height="32" viewBox="0 0 32 32" fill="none" xmlns="http://www.w3.org/2000/svg">
<path d="M16 0.138062C11.6322 0.138062 7.89656 1.69112 4.79311 4.79725C1.68966 7.90338 0.137939 11.6422 0.137939 16.0138C0.137939 20.3854 1.68966 24.1243 4.79311 27.2304C7.89656 30.3365 11.6322 31.8896 16 31.8896C20.3678 31.8896 24.1035 30.3365 27.2069 27.2304C30.3104 24.1243 31.8621 20.3854 31.8621 16.0138C31.8621 11.6422 30.3104 7.90338 27.2069 4.79725C24.1035 1.69112 20.3678 0.138062 16 0.138062ZM16 26.8507C13.0115 26.8507 10.4598 25.7924 8.34484 23.6756C6.22989 21.5588 5.17242 19.0049 5.17242 16.0138C5.17242 13.0227 6.22989 10.4688 8.34484 8.35204C10.4598 6.23527 13.0115 5.17689 16 5.17689C18.9885 5.17689 21.5402 6.23527 23.6552 8.35204C25.7701 10.4688 26.8276 13.0227 26.8276 16.0138C26.8276 19.0049 25.7701 21.5588 23.6552 23.6756C21.5402 25.7924 18.9885 26.8507 16 26.8507Z" fill="#ED2590"/>
</svg>
